<svg xmlns="http://www.w3.org/2000/svg" xmlns:xlink="http://www.w3.org/1999/xlink" viewBox="0 0 331.12 44" width="331.12px" height="44px"><defs><style>.a{fill:#fff;}.b{opacity:0.4;}.c{fill:#1d1d1b;}.d{fill:#444;}.e{fill:#f69e00;}.f{fill:#666;}.g{opacity:0.2;}.h,.k{fill:none;}.i{opacity:0.7;}.j{mask:url(#a);}.k{stroke:#979797;stroke-width:2px;}.l{opacity:0.6;}.m{fill:#0a0a08;}</style><mask id="a" x="265.12" y="-1" width="67" height="40" maskUnits="userSpaceOnUse"><rect class="a" x="266.12" width="65" height="38" rx="6" ry="6"/></mask></defs><title>mc-visa-amex</title><polygon class="a" points="289.33 43.46 290.25 43.46 290.25 42.57 289.33 42.57 289.33 43.46"/><g class="b"><path class="c" d="M9.18,39.2a1.63,1.63,0,0,0-.55-.36,1.83,1.83,0,0,0-.69-.13,2.63,2.63,0,0,0-.41,0,1.77,1.77,0,0,0-.42.12,1.56,1.56,0,0,0-.39.24,1.42,1.42,0,0,0-.32.39,1.59,1.59,0,0,0-.6-.57,1.77,1.77,0,0,0-.87-.21H4.59a1.59,1.59,0,0,0-.35.1c-.11,0-.08.12-.19.2a.38.38,0,0,0-.14.32v-.47H3.1V43h.81V40.78c0-.19-.11-.35,0-.5A1,1,0,0,1,4,39.92a.84.84,0,0,1,.31-.22,1.09,1.09,0,0,1,.41-.08.72.72,0,0,1,.63.3,1.26,1.26,0,0,1,.16.85V43h.81V40.78c0-.19.18-.35.24-.5a1.26,1.26,0,0,1,.31-.36,1.14,1.14,0,0,1,.38-.22,1.29,1.29,0,0,1,.44-.08,1,1,0,0,1,.77.3,1.27,1.27,0,0,1,.3.85V43h.81V40.5a1.91,1.91,0,0,0-.1-.71,1.55,1.55,0,0,0-.33-.55"/><path class="c" d="M14.05,41.58a1.32,1.32,0,0,1-.27.44,1.24,1.24,0,0,1-.42.3,1.42,1.42,0,0,1-1.1,0,1.23,1.23,0,0,1-.41-.3,1.33,1.33,0,0,1-.26-.45,1.67,1.67,0,0,1,0-1.09,1.33,1.33,0,0,1,.26-.45,1.23,1.23,0,0,1,.41-.3,1.42,1.42,0,0,1,1.1,0,1.24,1.24,0,0,1,.42.3,1.32,1.32,0,0,1,.27.44,1.67,1.67,0,0,1,0,1.12Zm-.37-2.22a.56.56,0,0,0-.37-.47,1.34,1.34,0,0,0-.71-.18,1.91,1.91,0,0,0-.81.17,2,2,0,0,0-.67.48,2.19,2.19,0,0,0-.45.73,2.64,2.64,0,0,0,0,1.85,2.21,2.21,0,0,0,.47.73,2.13,2.13,0,0,0,.7.48,2.16,2.16,0,0,0,.86.17,1,1,0,0,0,.61-.17.55.55,0,0,0,.37-.47V43h1.63V38.89H13.68Z"/><path class="c" d="M19.44,41a2.36,2.36,0,0,0-1.12-.42l-.45-.07-.28,0a.94.94,0,0,1-.23-.08.45.45,0,0,1-.15-.13.31.31,0,0,1-.06-.19.44.44,0,0,1,.22-.38,1.1,1.1,0,0,1,.61-.14,2.3,2.3,0,0,1,.4,0l.38.09.32.12.25.13.41-.75a2.8,2.8,0,0,0-.8-.34,3.77,3.77,0,0,0-1-.12,2.65,2.65,0,0,0-.75.1,1.72,1.72,0,0,0-.57.28,1.22,1.22,0,0,0-.36.44,1.33,1.33,0,0,0-.13.59,1.08,1.08,0,0,0,.38.86,2.1,2.1,0,0,0,1.11.43l.46.06a1.43,1.43,0,0,1,.58.18.36.36,0,0,1,.18.31.44.44,0,0,1-.25.39,1.54,1.54,0,0,1-.75.14,2.86,2.86,0,0,1-.48,0,2.45,2.45,0,0,1-.39-.1,1.89,1.89,0,0,1-.32-.14L16.41,42l-.44.72a2.35,2.35,0,0,0,.5.29,3.45,3.45,0,0,0,.51.17,3.31,3.31,0,0,0,.48.08h.39a3.12,3.12,0,0,0,.84-.11,1.89,1.89,0,0,0,.63-.3,1.3,1.3,0,0,0,.39-.45,1.25,1.25,0,0,0,.13-.58,1,1,0,0,0-.4-.88"/><path class="c" d="M25.72,40.52a3.51,3.51,0,0,1,.13-.37,1.11,1.11,0,0,1,.58-.52,1.24,1.24,0,0,1,.46-.07,1,1,0,0,1,.75.22c.19.19.31.74.37.74Zm2.67-1.17a1.88,1.88,0,0,0-.65-.47,2.07,2.07,0,0,0-.84-.17,2.27,2.27,0,0,0-.89.17,2,2,0,0,0-.69.47,2.15,2.15,0,0,0-.45.73,2.64,2.64,0,0,0-.16.94,2.6,2.6,0,0,0,.17,1,2.11,2.11,0,0,0,.46.73,2.06,2.06,0,0,0,.71.47,2.42,2.42,0,0,0,.91.16,3.25,3.25,0,0,0,1-.14,2.39,2.39,0,0,0,.85-.48L28.29,42a2.13,2.13,0,0,1-.61.34,1.92,1.92,0,0,1-.66.12,1.55,1.55,0,0,1-.45-.06,1.17,1.17,0,0,1-.39-.2,1.29,1.29,0,0,1-.3-.37c-.08-.14-.14-.53-.17-.53H29a.84.84,0,0,0,0-.15V41a2.7,2.7,0,0,0-.15-.93,2.17,2.17,0,0,0-.43-.72Z"/><path class="c" d="M41.07,41.58a1.32,1.32,0,0,1-.27.44,1.24,1.24,0,0,1-.42.3,1.42,1.42,0,0,1-1.1,0,1.24,1.24,0,0,1-.41-.3,1.34,1.34,0,0,1-.26-.45,1.67,1.67,0,0,1,0-1.09,1.34,1.34,0,0,1,.26-.45,1.24,1.24,0,0,1,.41-.3,1.42,1.42,0,0,1,1.1,0,1.24,1.24,0,0,1,.42.3,1.32,1.32,0,0,1,.27.44,1.67,1.67,0,0,1,0,1.12Zm.3-2.22c-.81-.19-.48-.35-.7-.47a2,2,0,0,0-.88-.18,2.31,2.31,0,0,0-.89.17,2.21,2.21,0,0,0-.71.48,2.24,2.24,0,0,0-.47.73,2.61,2.61,0,0,0,0,1.85,2.2,2.2,0,0,0,.47.73,2.14,2.14,0,0,0,1.56.65,2.37,2.37,0,0,0,.94-.17c.23-.12-.11-.27.7-.47V43h.81V38.89h-.81Z"/><path class="c" d="M23.54,42.34a1.29,1.29,0,0,1-.46.09.8.8,0,0,1-.27,0,.57.57,0,0,1-.22-.14c-.06-.07,0-.15,0-.25s.07-.23.07-.38v-2h1.63v-.81H22.64V37.26h-.81v1.63H20.2v.81h1.63v1.92c0,.58-.06,1,.22,1.29a1.34,1.34,0,0,0,1.06.41,1.81,1.81,0,0,0,.7-.13,2.92,2.92,0,0,0,.38-.19l-.34-.8-.3.13"/><path class="c" d="M32.18,38.71a2,2,0,0,0-.79.15c-.22.1-.61.33-.61.54v-.51H30V43h.81V40.8a1.48,1.48,0,0,1,.14-.5,1.13,1.13,0,0,1,.25-.37,1,1,0,0,1,.35-.23,1.15,1.15,0,0,1,.43-.08,1.9,1.9,0,0,1,.38,0l.19,0,.28-.91-.23-.06a2.34,2.34,0,0,0-.4,0"/><path class="c" d="M45.47,38.71a2.79,2.79,0,0,0-.92.15c-.22.1.08.33-.74.54v-.51H43V43h.81V40.8c0-.19.22-.35.28-.5a1.42,1.42,0,0,1,.31-.37,1.08,1.08,0,0,1,.38-.23,1.24,1.24,0,0,1,.45-.08,2,2,0,0,1,.39,0l.2,0,.29-.91-.23-.06a2.31,2.31,0,0,0-.39,0"/><path class="c" d="M49.9,41.58a1.32,1.32,0,0,1-.27.44,1.24,1.24,0,0,1-.42.3,1.42,1.42,0,0,1-1.1,0,1.24,1.24,0,0,1-.41-.3,1.34,1.34,0,0,1-.26-.45,1.67,1.67,0,0,1,0-1.09A1.34,1.34,0,0,1,47.7,40a1.24,1.24,0,0,1,.41-.3,1.42,1.42,0,0,1,1.1,0,1.24,1.24,0,0,1,.42.3,1.32,1.32,0,0,1,.27.44,1.67,1.67,0,0,1,0,1.12Zm.43-4.32v2.1c-.81-.19-.54-.35-.76-.47a2.18,2.18,0,0,0-.91-.18,2.38,2.38,0,0,0-.91.17,2.22,2.22,0,0,0-.72.48,2.25,2.25,0,0,0-.48.73,2.6,2.6,0,0,0,0,1.85,2.21,2.21,0,0,0,.47.73,2.12,2.12,0,0,0,.69.48,2.15,2.15,0,0,0,.86.17,2.69,2.69,0,0,0,1-.17c.23-.12,0-.27.76-.47V43h.81V37.3Z"/><path class="c" d="M34.46,40a1.28,1.28,0,0,1,.43-.29,1.43,1.43,0,0,1,.54-.1h0a1.71,1.71,0,0,1,.6.1,1.42,1.42,0,0,1,.46.28l.46-.77a2.35,2.35,0,0,0-.58-.34,2.59,2.59,0,0,0-1.88,0,2.27,2.27,0,0,0-.75.48,2.23,2.23,0,0,0-.49.73,2.43,2.43,0,0,0,0,1.83,2.22,2.22,0,0,0,1.24,1.21,2.6,2.6,0,0,0,1.88,0,2.32,2.32,0,0,0,.58-.34L36.51,42a1.45,1.45,0,0,1-.46.28,1.71,1.71,0,0,1-.6.1h0a1.43,1.43,0,0,1-.54-.1,1.3,1.3,0,0,1-.43-.29,1.33,1.33,0,0,1-.29-.44,1.6,1.6,0,0,1,0-1.14,1.34,1.34,0,0,1,.29-.44"/><path class="c" d="M52.85,42.91V43h0Zm.09-.1a.18.18,0,0,1,.12,0,.12.12,0,0,1,0,.1.11.11,0,0,1,0,.08H53l.12.14H53L52.89,43h0v.14h-.11v-.4Zm0,.52h.13l.1-.07a.31.31,0,0,0,0-.45l-.1-.07h-.26l-.1.07a.32.32,0,0,0-.09.23.21.21,0,0,0,.07.23l.1.07h.15Zm0-.77a.46.46,0,0,1,.42.27.43.43,0,0,1,0,.17.43.43,0,0,1,0,.17.45.45,0,0,1-.75.18.28.28,0,0,1-.1-.31.44.44,0,0,1,.13-.32.31.31,0,0,1,.33-.1Z"/><path d="M20.5,18.34a16.49,16.49,0,0,1,6.27-13,16.52,16.52,0,1,0,0,25.91,16.49,16.49,0,0,1-6.27-13"/><path class="d" d="M20.5,18.34a16.49,16.49,0,0,0,6.27,13,16.51,16.51,0,0,0,0-25.91,16.49,16.49,0,0,0-6.27,13"/><path class="e" d="M53.45,27.27v-.43l-.14.37h-.15L53,26.85v.43h-.14v-.62h.21l.15.39.15-.39h.21v.62Zm-1,0v-.48h-.2v-.13h.54v.13h-.2v.48Z"/><path class="f" d="M37,1.81A16.45,16.45,0,0,0,26.77,5.38a16.51,16.51,0,0,1,0,25.91A16.52,16.52,0,1,0,37,1.81"/></g><g class="b"><polygon points="103.44 30.75 106.93 10.39 112.51 10.39 109.02 30.75 103.44 30.75"/><path d="M129.25,10.55a14.42,14.42,0,0,0-5-.86c-5.51,0-9.4,2.78-9.43,6.76,0,2.94,2.77,4.58,4.89,5.56s2.9,1.64,2.89,2.54c0,1.37-1.73,2-3.34,2A11.69,11.69,0,0,1,114,25.47l-.72-.33-.78,4.58a17.65,17.65,0,0,0,6.22,1.09c5.86,0,9.67-2.74,9.72-7,0-2.33-1.47-4.1-4.68-5.56-2-1-3.14-1.58-3.13-2.54s1-1.76,3.2-1.76a10.29,10.29,0,0,1,4.18.78l.5.24.76-4.44"/><path d="M136.68,23.42c.46-1.63,2.22-5.8,2.22-5.8s.46-1.22.74-2l.38,1.82s1.07,5.15,1.29,6Zm7-13h-4.41A2.74,2.74,0,0,0,136.33,12L128,30.75h5.86s1-2.63,1.17-3.19l7.15.06c.17.72.68,3.12.68,3.12H148l-4.52-20.36Z"/><path d="M98.76,10.39,93.3,24.19l-.58-2.92A16,16,0,0,0,85,12.64l5,17.88,5.9.14,8.78-20.28h-5.8"/><path class="f" d="M88.29,10.39H79.23l-.07.26c7,1.69,11.63,5.7,13.55,10.62l-2-9.28c-.34-1.3-1.32-1.6-2.53-1.6"/></g><g class="g"><path d="M231.64.18H182V37.67h49.64V26.51a1.88,1.88,0,0,0,.29-1.1,1.7,1.7,0,0,0-.29-1.09"/><path class="h" d="M194.74,11.37l-1.68,4-1.83-4H189V16.9l-2.37-5.53h-2.07L182,17.21h1.52l.54-1.3H187l.54,1.3h2.84V12.63l2,4.58h1.22l2-4.57v4.57H197V11.37Zm-10.17,3.32.95-2.33,1,2.33Z"/><path class="h" d="M209.34,12.94a1.36,1.36,0,0,0-.71-1.29,3.29,3.29,0,0,0-1.69-.28h-3.21v5.84h1.4V15.09h1.5a1.36,1.36,0,0,1,1,.25,1.75,1.75,0,0,1,.22,1.14v.74h1.41V16.06A1.68,1.68,0,0,0,209,15a1.62,1.62,0,0,0-.69-.49A1.64,1.64,0,0,0,209.34,12.94Zm-1.82.82a1.29,1.29,0,0,1-.69.12h-1.69v-1.3h1.72a1.43,1.43,0,0,1,.66.11.53.53,0,0,1,.29.52.6.6,0,0,1-.3.55Z"/><polygon class="h" points="198.1 17.21 202.76 17.21 202.76 16 199.5 16 199.5 14.84 202.69 14.84 202.69 13.64 199.5 13.64 199.5 12.59 202.76 12.59 202.76 11.37 198.1 11.37 198.1 17.21"/><path class="h" d="M226.66,15.44l-2.45-4.07h-2.12v5.52l-2.36-5.52h-2.09l-2,4.59H215a1.35,1.35,0,0,1-1-.3,2,2,0,0,1-.38-1.37A1.93,1.93,0,0,1,214,13a1.34,1.34,0,0,1,1.07-.35h1.32V11.37h-1.35a2.83,2.83,0,0,0-2.12.68,3.11,3.11,0,0,0-.75,2.28,2.94,2.94,0,0,0,.75,2.23,2.93,2.93,0,0,0,2,.65h1.63l.53-1.3H220l.54,1.3h2.84V12.83L226,17.21h2V11.37h-1.43Zm-9-.75,1-2.33,1,2.33Z"/><polygon class="a" points="184.57 14.69 186.47 14.69 185.52 12.36 184.57 14.69"/><polygon class="a" points="217.68 14.69 219.6 14.69 218.64 12.36 217.68 14.69"/><path class="a" d="M225.45,10.22v1l-.54-1h-4v1l-.5-1H215a4.82,4.82,0,0,0-2.33.48v-.48H209v.48a2.3,2.3,0,0,0-1.58-.48H193.9l-.91,2.1-.93-2.1H187.8v1l-.47-1h-3.64L182,14.09v4.27h2.38l.54-1.3h1.2l.54,1.3h4.69v-1l.42,1h2.43l.42-1v1h11.66V16.23h.23c.16,0,.2,0,.2.28v1.85h6v-.5a4.78,4.78,0,0,0,2.24.5h2.54l.54-1.3h1.2l.53,1.3h4.89V17.12l.74,1.23h3.92V10.22Zm-28.39,7h-1.43V12.64l-2,4.57h-1.22l-2-4.58v4.58h-2.84l-.54-1.3h-2.9l-.54,1.3H182l2.5-5.84h2.07L189,16.9V11.37h2.28l1.83,4,1.68-4h2.32v5.84h-.05Zm5.7-4.62H199.5v1.05h3.19v1.2H199.5V16h3.27v1.21H198.1V11.37h4.66ZM209,15a1.68,1.68,0,0,1,.23,1.07v1.15h-1.41v-.74a1.75,1.75,0,0,0-.22-1.14,1.36,1.36,0,0,0-1-.25h-1.5v2.12h-1.4V11.37h3.21a3.29,3.29,0,0,1,1.69.28,1.36,1.36,0,0,1,.71,1.29,1.64,1.64,0,0,1-1,1.56A1.62,1.62,0,0,1,209,15Zm2.53,2.22h-1.42V11.37h1.42Zm16.52,0h-2l-2.64-4.38v4.38h-2.84l-.54-1.3h-2.9l-.53,1.3H215a2.93,2.93,0,0,1-2-.65,2.94,2.94,0,0,1-.75-2.23,3.11,3.11,0,0,1,.75-2.28,2.83,2.83,0,0,1,2.12-.68h1.35v1.25h-1.32a1.34,1.34,0,0,0-1.07.35,1.93,1.93,0,0,0-.4,1.32,2,2,0,0,0,.38,1.37,1.35,1.35,0,0,0,1,.3h.63l2-4.59h2.09l2.36,5.52V11.37h2.12l2.45,4.07V11.37h1.43Z"/><path class="a" d="M207.51,12.69a1.43,1.43,0,0,0-.66-.11h-1.72v1.3h1.69a1.29,1.29,0,0,0,.69-.12.6.6,0,0,0,.29-.55A.53.53,0,0,0,207.51,12.69Z"/><path class="a" d="M209,23.34c0,1.62-1.21,2-2.43,2h-1.74v2h-2.71l-1.72-1.93-1.79,1.93h-5.53V21.42h5.61l1.72,1.91,1.77-1.91h4.46c1.11,0,2.35.31,2.35,1.92ZM198,26h-3.43V24.88h3.06V23.69h-3.06V22.63H198l1.53,1.7Zm5.53.69-2.14-2.38,2.14-2.3Zm3.19-2.61h-1.8V22.63h1.82c.5,0,.85.21.85.72s-.33.77-.87.77Zm9.41-2.69h4.66V22.6h-3.27v1.06h3.19v1.19h-3.19V26h3.27v1.21h-4.66Zm-1.76,3.13A1.52,1.52,0,0,1,215,25a1.7,1.7,0,0,1,.23,1.07v1.16h-1.4V26.5a1.91,1.91,0,0,0-.23-1.14,1.35,1.35,0,0,0-1-.26h-1.5v2.13h-1.4V21.42h3.22a3.45,3.45,0,0,1,1.68.28,1.37,1.37,0,0,1,.72,1.3,1.64,1.64,0,0,1-1,1.55Zm-.84-.73a1.34,1.34,0,0,1-.69.12H211.1V22.63h1.72a1.38,1.38,0,0,1,.67.11.56.56,0,0,1,.29.53.63.63,0,0,1-.29.56Zm12.59.36a1.62,1.62,0,0,1,.42,1.24c0,1.26-.78,1.84-2.19,1.84h-2.72V26h2.71a.82.82,0,0,0,.57-.14.52.52,0,0,0,.16-.38.5.5,0,0,0-.17-.39.73.73,0,0,0-.5-.13c-1.3,0-2.94,0-2.94-1.81,0-.85.53-1.74,2-1.74h2.8v1.24H223.7a1,1,0,0,0-.56.11.49.49,0,0,0,.1.86,1.6,1.6,0,0,0,.54.07h.75a2.25,2.25,0,0,1,1.59.47Zm5.57,2.33a2.17,2.17,0,0,1-1.89.75h-2.69V26h2.68a.79.79,0,0,0,.56-.14.51.51,0,0,0,.17-.38.48.48,0,0,0-.17-.39.71.71,0,0,0-.49-.13c-1.31,0-2.94,0-2.94-1.81,0-.85.54-1.74,2-1.74h2.78V20.26h-2.58a2.91,2.91,0,0,0-1.75.48v-.48h-3.82a2.64,2.64,0,0,0-1.67.48v-.48H215v.48a3.63,3.63,0,0,0-1.88-.48h-4.5v.48a3.18,3.18,0,0,0-2-.48h-5l-1.15,1.25-1.08-1.25h-7.52V28.4h7.38l1.19-1.27,1.12,1.27h4.55V26.49h.45a4.75,4.75,0,0,0,1.94-.29v2.2h3.75V26.28h.18c.23,0,.25,0,.25.24V28.4h11.4a3.25,3.25,0,0,0,1.9-.52v.52h3.62a4.84,4.84,0,0,0,2-.38Zm0-3.85H229.1a1,1,0,0,0-.56.11.45.45,0,0,0-.2.42.44.44,0,0,0,.31.44,1.59,1.59,0,0,0,.54.07H230a2.21,2.21,0,0,1,1.58.47.76.76,0,0,1,.13.14Z"/></g><g class="i"><g class="j"><rect class="k" x="266.12" width="65" height="38" rx="6" ry="6"/><g class="l"><path class="m" d="M285.52,11.6A3.47,3.47,0,0,0,286.4,9a3.86,3.86,0,0,0-2.5,1.23,3.3,3.3,0,0,0-.9,2.51,3.2,3.2,0,0,0,2.52-1.15m2.13,6a3.61,3.61,0,0,0,2.28,3.28,8.7,8.7,0,0,1-1.17,2.31c-.71,1-1.44,2-2.6,2s-1.5-.64-2.8-.64-1.7.62-2.78.66-2-1.07-2.68-2.05c-1.46-2-2.57-5.69-1.07-8.17a4.18,4.18,0,0,1,3.51-2c1.1,0,2.13.7,2.8.7s1.93-.87,3.25-.74a4,4,0,0,1,3.1,1.61,3.66,3.66,0,0,0-1.83,3.08"/><path class="m" d="M295.16,17.78a4.79,4.79,0,0,0,.86.15q.48,0,1,0a4.87,4.87,0,0,0,3.16-.92,3.27,3.27,0,0,0,1.12-2.69,3.5,3.5,0,0,0-.29-1.49,2.68,2.68,0,0,0-.84-1,3.89,3.89,0,0,0-1.29-.61,6.18,6.18,0,0,0-1.66-.21,12.18,12.18,0,0,0-1.25.05q-.52.05-.84.12Zm-1.07-7.35q.66-.11,1.45-.2a16,16,0,0,1,1.75-.09,7.71,7.71,0,0,1,2.35.32,4.25,4.25,0,0,1,1.62.91,3.73,3.73,0,0,1,.85,1.25,4.23,4.23,0,0,1,.31,1.66,4.46,4.46,0,0,1-.42,2,4.15,4.15,0,0,1-1.15,1.43,4.86,4.86,0,0,1-1.72.86,7.93,7.93,0,0,1-2.18.28,8.87,8.87,0,0,1-1.79-.15V25h-1.07V10.43Z"/><path class="m" d="M309.83,19.38a15.31,15.31,0,0,0-1.8.07,6.75,6.75,0,0,0-1.74.38,3.32,3.32,0,0,0-1.32.86,2.15,2.15,0,0,0-.52,1.51,2,2,0,0,0,.66,1.64,2.3,2.3,0,0,0,1.47.53,3.69,3.69,0,0,0,1.18-.18,3.11,3.11,0,0,0,.91-.47,3,3,0,0,0,.65-.67,3.1,3.1,0,0,0,.4-.77,2.89,2.89,0,0,0,.11-.63Zm1.07,3.13q0,.63,0,1.27a8,8,0,0,0,.14,1.22h-1l-.16-1.49h0a3.75,3.75,0,0,1-.52.61,4.07,4.07,0,0,1-.74.56,4,4,0,0,1-1,.4,4.23,4.23,0,0,1-1.17.15,3.59,3.59,0,0,1-1.4-.25,2.87,2.87,0,0,1-1-.66,2.67,2.67,0,0,1-.58-.93,3,3,0,0,1-.19-1.05,3.19,3.19,0,0,1,1.62-2.87,9.2,9.2,0,0,1,4.89-1v-.28a6.57,6.57,0,0,0-.08-1,2.92,2.92,0,0,0-.35-1,2.24,2.24,0,0,0-.82-.81,2.85,2.85,0,0,0-1.48-.33,4.94,4.94,0,0,0-2.65.79l-.34-.77a5.13,5.13,0,0,1,1.5-.69,6.16,6.16,0,0,1,1.61-.21,4,4,0,0,1,1.85.37,3,3,0,0,1,1.12,1,3.52,3.52,0,0,1,.56,1.32,7.36,7.36,0,0,1,.15,1.45v4.13Z"/><path class="m" d="M313,14.5l2.77,6.83q.23.57.43,1.17t.36,1.1h0l.36-1.08q.2-.6.45-1.24L320,14.5h1.13L318,22.2q-.48,1.22-.9,2.22t-.85,1.79a12.79,12.79,0,0,1-.87,1.41,5.94,5.94,0,0,1-1,1.07,5.36,5.36,0,0,1-1.17.8q-.53.25-.71.32l-.36-.85a9.09,9.09,0,0,0,.91-.46,4.93,4.93,0,0,0,1-.74,9,9,0,0,0,.9-1,7.22,7.22,0,0,0,.87-1.56,1.71,1.71,0,0,0,.14-.46,1.28,1.28,0,0,0-.14-.46l-3.92-9.73H313"/></g></g></g></svg>
