<svg width="372" height="98" viewBox="0 0 372 98" fill="none" xmlns="http://www.w3.org/2000/svg">
<g clip-path="url(#clip0_3709_1358)">
<path d="M140.646 14.3011C141.519 14.3011 142.291 14.4313 142.966 14.6949C143.641 14.9584 144.218 15.3522 144.695 15.8793C145.173 16.4064 145.534 16.9874 145.772 17.6193C146.011 18.2512 146.13 18.9402 146.13 19.6769C146.13 20.3882 146.011 21.0582 145.772 21.6837C145.534 22.3092 145.176 22.8935 144.695 23.4333C144.218 23.9731 143.641 24.3795 142.966 24.6494C142.291 24.9193 141.515 25.0559 140.646 25.0559C139.773 25.0559 139.001 24.9193 138.323 24.6494C137.645 24.3795 137.07 23.9731 136.593 23.4333C136.116 22.8935 135.755 22.3092 135.516 21.6837C135.278 21.0582 135.158 20.3882 135.158 19.6769C135.158 18.9371 135.278 18.2512 135.516 17.6193C135.755 16.9874 136.113 16.4064 136.593 15.8793C137.07 15.3522 137.648 14.9584 138.323 14.6949C138.998 14.4313 139.773 14.3011 140.646 14.3011ZM144.526 32.7432V54.0875V75.4318H140.602H136.678V54.0875V32.7432H140.602H144.526Z" fill="#242236"/>
<path d="M162.228 32.7429L162.734 39.4873C164.758 36.7565 167.135 34.8069 169.866 33.6384C172.594 32.473 175.479 31.8888 178.518 31.8888C184.369 31.8888 188.745 33.4987 191.643 36.7121C194.54 39.9286 195.991 44.555 195.991 50.5849V75.4315H188.139V50.5563C188.139 46.8095 187.436 43.8565 186.03 41.6973C184.624 39.5381 182.118 38.4585 178.518 38.4585C175.196 38.4585 172.315 39.084 169.866 40.3319C167.417 41.583 165.207 43.4849 163.239 46.0379V75.4252H155.388V32.7429H162.228Z" fill="#242236"/>
<path d="M209.075 32.7432V29.9267C209.075 27.4785 209.496 25.2304 210.34 23.1824C211.185 21.1343 212.365 19.3561 213.884 17.8447C215.404 16.3364 217.218 15.1711 219.328 14.3455C221.437 13.52 223.76 13.1072 226.291 13.1072C229.835 13.1072 232.987 13.6057 235.746 14.6027C238.502 15.5998 241.177 17.0922 243.764 19.0862V63.1434C243.764 65.3629 244.172 66.8299 244.988 67.5412C245.804 68.2524 247.477 68.6081 250.011 68.6081V75.8668C249.672 75.9239 249.336 75.9525 248.997 75.9525C248.661 75.9525 248.322 75.9525 247.983 75.9525C245.732 75.9525 243.845 75.6255 242.326 74.9714C240.807 74.3172 239.567 73.3932 238.612 72.1962C237.655 71.0022 236.967 69.5353 236.543 67.7984C236.123 66.0615 235.909 64.115 235.909 61.9495V22.8394C234.446 21.7598 232.984 21.0041 231.521 20.5786C230.058 20.1531 228.369 19.9372 226.457 19.9372C222.966 19.9372 220.505 20.82 219.07 22.5854C217.636 24.3509 216.917 26.7133 216.917 29.6727V32.7463H229.747L229.408 39.3224L216.917 38.8969V75.435H209.066V39.3192L201.723 38.2936V32.7432H209.075Z" fill="#242236"/>
<path d="M300.339 54.0907C300.339 57.5073 299.721 60.581 298.484 63.3118C297.247 66.0425 295.577 68.3795 293.47 70.3133C291.364 72.2502 288.878 73.7299 286.011 74.7523C283.149 75.778 280.085 76.2892 276.829 76.2892C273.571 76.2892 270.51 75.778 267.644 74.7523C264.778 73.7267 262.291 72.247 260.185 70.3133C258.079 68.3795 256.408 66.0457 255.172 63.3118C253.935 60.581 253.319 57.5073 253.319 54.0907C253.319 50.6741 253.938 47.6004 255.172 44.8697C256.408 42.1389 258.079 39.8051 260.185 37.8682C262.291 35.9344 264.778 34.4516 267.644 33.4291C270.51 32.4035 273.571 31.8923 276.829 31.8923C280.088 31.8923 283.149 32.4035 286.011 33.4291C288.878 34.4547 291.364 35.9344 293.47 37.8682C295.577 39.8051 297.247 42.1358 298.484 44.8697C299.721 47.6004 300.339 50.6741 300.339 54.0907ZM260.92 54.0907C260.92 59.0156 262.329 62.8958 265.151 65.725C267.973 68.5574 271.866 69.9704 276.832 69.9704C281.795 69.9704 285.691 68.5542 288.51 65.725C291.333 62.8958 292.742 59.0156 292.742 54.0907C292.742 49.1659 291.329 45.2888 288.51 42.4565C285.691 39.6241 281.795 38.2111 276.832 38.2111C271.866 38.2111 267.973 39.6273 265.151 42.4565C262.329 45.2856 260.92 49.1659 260.92 54.0907Z" fill="#242236"/>
<path d="M303.437 32.7432H311.54L322.851 68.0048H323.525L334.751 32.7432H341.168L352.733 68.0048H353.408L364.128 32.7432H371.98L357.8 75.435H347.585L338.129 46.0636H337.624L328.087 75.435H317.621L303.437 32.7432Z" fill="#242236"/>
<path d="M110.802 33.1622C105.371 2.3524 67.4711 -2.65821 44.856 1.41886C31.7497 3.78445 19.5852 10.3509 11.4765 19.4386C1.98658 30.0758 -1.68006 43.3486 0.872147 57.8279C3.98627 75.5047 20.1848 97.6269 32.8736 97.6269C33.492 97.6269 34.101 97.573 34.7006 97.465C44.1246 95.7662 46.9405 85.8688 49.6654 76.2953C49.8788 75.546 50.0923 74.7998 50.3058 74.0568C56.691 75.0379 63.6538 74.9808 70.7862 73.6948C95.9911 69.1573 113.941 50.9692 110.802 33.1622ZM69.6812 67.4363C63.5973 68.5318 57.6736 68.662 52.2364 67.9666C54.707 61.1206 58.1445 55.6496 65.2925 54.3605C75.8403 52.4585 83.7104 50.8962 88.8964 48.1115C95.0023 44.8346 97.3598 39.7764 96.101 32.6415C94.456 23.3093 78.5213 14.2502 54.6662 15.2377C42.0684 15.7616 31.1658 20.696 24.7492 28.774C19.9776 34.7848 18.072 42.1959 19.3842 49.642C21.0261 58.9615 28.1302 66.344 38.1349 70.6275L39.9494 64.6262C32.2112 61.181 26.818 55.5607 25.5811 48.5243C24.5765 42.8342 25.9861 37.3822 29.659 32.759C34.936 26.1131 44.1466 22.0455 54.9299 21.5978C56.082 21.5502 57.2058 21.5248 58.2983 21.5248C79.2213 21.5248 89.2449 29.9742 89.9104 33.756C90.6952 38.2141 89.6593 40.4971 85.9518 42.488C81.582 44.8346 73.8469 46.3524 64.1906 48.0924C55.2532 49.7055 50.5287 55.8846 47.4804 62.9433C46.9405 64.1912 43.1766 76.089 42.9599 76.8288C40.4956 85.2147 38.3704 90.3365 33.5987 91.197C26.6673 92.4512 10.3275 75.2031 7.06901 56.707C4.8684 44.2345 8.01078 32.8225 16.1508 23.6999C23.3428 15.641 34.2077 9.80163 45.9642 7.68053C49.3922 7.06135 53.8468 6.63904 58.7723 6.63904C65.4903 6.63904 73.0904 7.42968 80.1788 9.59206C94.2614 13.8882 102.483 22.1916 104.611 34.2736C107.135 48.6322 91.4706 63.5085 69.6812 67.4363Z" fill="#242236"/>
</g>
<defs>
<clipPath id="clip0_3709_1358">
<rect width="372" height="98" fill="white"/>
</clipPath>
</defs>
</svg>
